<?xml version="1.0" encoding="UTF-8"?>
<svg xmlns="http://www.w3.org/2000/svg" xmlns:xlink="http://www.w3.org/1999/xlink" width="40px" height="40px" viewBox="0 0 40 40" version="1.1">
<g id="surface1">
<path style="fill:none;stroke-width:2;stroke-linecap:round;stroke-linejoin:round;stroke:rgb(0%,0%,0%);stroke-opacity:1;stroke-miterlimit:4;" d="M 9 21 L 9 13.600781 C 9 13.040625 9 12.759375 9.110156 12.546094 C 9.203906 12.358594 9.358594 12.203906 9.546094 12.110156 C 9.759375 12 10.040625 12 10.600781 12 L 13.399219 12 C 13.959375 12 14.240625 12 14.453906 12.110156 C 14.641406 12.203906 14.796094 12.358594 14.889844 12.546094 C 15 12.759375 15 13.040625 15 13.600781 L 15 21 M 1.999219 9.499219 L 11.039062 2.721094 C 11.383594 2.460937 11.557031 2.332031 11.744531 2.282812 C 11.913281 2.238281 12.086719 2.238281 12.255469 2.282812 C 12.442969 2.332031 12.616406 2.460937 12.960937 2.721094 L 22.000781 9.499219 M 4.000781 7.999219 L 4.000781 17.800781 C 4.000781 18.921094 4.000781 19.48125 4.21875 19.907812 C 4.408594 20.285156 4.715625 20.589844 5.092969 20.782031 C 5.519531 21 6.079687 21 7.2 21 L 16.8 21 C 17.920312 21 18.480469 21 18.907031 20.782031 C 19.284375 20.589844 19.591406 20.285156 19.78125 19.907812 C 19.999219 19.48125 19.999219 18.921094 19.999219 17.800781 L 19.999219 7.999219 L 13.919531 3.440625 C 13.230469 2.922656 12.888281 2.664844 12.508594 2.566406 C 12.175781 2.477344 11.824219 2.477344 11.491406 2.566406 C 11.111719 2.664844 10.769531 2.922656 10.080469 3.440625 Z M 4.000781 7.999219 " transform="matrix(1.666667,0,0,1.666667,0,0)"/>
</g>
</svg>
