<?xml version="1.0" encoding="UTF-8"?>
<svg xmlns="http://www.w3.org/2000/svg" xmlns:xlink="http://www.w3.org/1999/xlink" width="40px" height="40px" viewBox="0 0 40 40" version="1.1">
<g id="surface1">
<path style=" stroke:none;fill-rule:evenodd;fill:rgb(0%,0%,0%);fill-opacity:1;" d="M 20 3.332031 C 10.796875 3.332031 3.332031 10.796875 3.332031 20 C 3.332031 29.203125 10.796875 36.667969 20 36.667969 C 29.203125 36.667969 36.667969 29.203125 36.667969 20 C 36.667969 10.796875 29.203125 3.332031 20 3.332031 Z M 20 33.332031 C 12.648438 33.332031 6.667969 27.351562 6.667969 20 C 6.667969 12.648438 12.648438 6.667969 20 6.667969 C 27.351562 6.667969 33.332031 12.648438 33.332031 20 C 33.332031 27.351562 27.351562 33.332031 20 33.332031 Z M 22.085938 13.332031 C 22.085938 14.542969 21.207031 15.417969 20.015625 15.417969 C 18.777344 15.417969 17.921875 14.542969 17.921875 13.308594 C 17.921875 12.125 18.800781 11.25 20.015625 11.25 C 21.207031 11.25 22.085938 12.125 22.085938 13.332031 Z M 18.335938 18.332031 L 21.671875 18.332031 L 21.671875 28.332031 L 18.335938 28.332031 Z M 18.335938 18.332031 "/>
</g>
</svg>
