<?xml version="1.0" encoding="UTF-8"?>
<svg xmlns="http://www.w3.org/2000/svg" xmlns:xlink="http://www.w3.org/1999/xlink" width="40px" height="40px" viewBox="0 0 40 40" version="1.1">
<g id="surface1">
<path style="fill:none;stroke-width:2;stroke-linecap:butt;stroke-linejoin:round;stroke:rgb(0%,0%,0%);stroke-opacity:1;stroke-miterlimit:10;" d="M 31 16 C 31 7.715625 24.284375 1 16 1 C 7.715625 1 1 7.715625 1 16 C 1 24.284375 7.715625 31 16 31 C 24.284375 31 31 24.284375 31 16 Z M 31 16 " transform="matrix(1.25,0,0,1.25,0,0)"/>
<path style="fill:none;stroke-width:2;stroke-linecap:butt;stroke-linejoin:round;stroke:rgb(0%,0%,0%);stroke-opacity:1;stroke-miterlimit:10;" d="M 26 27 C 26 21.478125 21.521875 17 16 17 C 10.478125 17 6 21.478125 6 27 " transform="matrix(1.25,0,0,1.25,0,0)"/>
<path style="fill:none;stroke-width:2;stroke-linecap:butt;stroke-linejoin:round;stroke:rgb(0%,0%,0%);stroke-opacity:1;stroke-miterlimit:10;" d="M 22 11 C 22 7.6875 19.3125 5 16 5 C 12.6875 5 10 7.6875 10 11 C 10 14.3125 12.6875 17 16 17 C 19.3125 17 22 14.3125 22 11 Z M 22 11 " transform="matrix(1.25,0,0,1.25,0,0)"/>
</g>
</svg>
