<?xml version="1.0" encoding="UTF-8"?>
<svg xmlns="http://www.w3.org/2000/svg" xmlns:xlink="http://www.w3.org/1999/xlink" width="40px" height="40px" viewBox="0 0 40 40" version="1.1">
<g id="surface1">
<path style=" stroke:none;fill-rule:nonzero;fill:rgb(0%,0%,0%);fill-opacity:1;" d="M 39.9375 7.316406 C 39.925781 3.300781 36.664062 0.046875 32.648438 0.046875 L 7.289062 0.046875 C 5.351562 0.046875 3.496094 0.820312 2.128906 2.191406 C 0.757812 3.566406 -0.0078125 5.425781 0 7.363281 L 0.0625 26.710938 C 0.0742188 30.730469 3.335938 33.910156 7.351562 33.910156 L 14.554688 33.910156 L 17.960938 38.863281 C 18.417969 39.523438 19.171875 39.949219 19.972656 39.953125 C 20.777344 39.953125 21.53125 39.511719 21.992188 38.851562 L 25.441406 33.910156 L 32.710938 33.910156 C 34.648438 33.910156 36.503906 33.207031 37.871094 31.835938 C 39.242188 30.460938 40.007812 28.636719 40 26.699219 Z M 19.453125 28.488281 C 17.933594 28.488281 16.90625 27.371094 16.90625 25.882812 C 16.90625 24.363281 17.964844 23.277344 19.453125 23.277344 C 20.996094 23.277344 22 24.363281 22.027344 25.882812 C 22.027344 27.371094 20.996094 28.488281 19.453125 28.488281 Z M 23.140625 16.265625 C 21.984375 17.546875 21.734375 18.765625 21.734375 20.171875 C 21.734375 21.21875 20.886719 22.066406 19.84375 22.066406 L 19.066406 22.066406 C 18.03125 22.066406 17.1875 21.234375 17.171875 20.203125 L 17.171875 20 C 17.078125 18.40625 17.609375 16.742188 19.015625 15.058594 C 20.015625 13.867188 20.828125 12.847656 20.828125 11.785156 C 20.828125 10.691406 20.109375 9.964844 18.546875 9.902344 C 18.070312 9.902344 17.546875 9.980469 17.039062 10.121094 C 16.113281 10.378906 15.144531 9.855469 14.859375 8.933594 C 14.570312 8.007812 15.078125 7.019531 16 6.714844 C 17.007812 6.378906 18.242188 6.144531 19.609375 6.144531 C 23.734375 6.144531 25.703125 8.425781 25.703125 11.019531 C 25.703125 13.390625 24.328125 14.953125 23.140625 16.265625 Z M 23.140625 16.265625 "/>
</g>
</svg>
