<?xml version="1.0" encoding="UTF-8"?>
<svg xmlns="http://www.w3.org/2000/svg" xmlns:xlink="http://www.w3.org/1999/xlink" width="40px" height="40px" viewBox="0 0 40 40" version="1.1">
<g id="surface1">
<path style="fill:none;stroke-width:20;stroke-linecap:round;stroke-linejoin:round;stroke:rgb(0%,0%,0%);stroke-opacity:1;stroke-miterlimit:4;" d="M 291.15 234.61 L 502 234.61 " transform="matrix(0.078125,0,0,0.078125,0,0.100781)"/>
<path style="fill:none;stroke-width:20;stroke-linecap:round;stroke-linejoin:round;stroke:rgb(0%,0%,0%);stroke-opacity:1;stroke-miterlimit:4;" d="M 437.85 181.16 L 502 234.61 L 437.85 288.11 " transform="matrix(0.078125,0,0,0.078125,0,0.100781)"/>
<path style="fill:none;stroke-width:20;stroke-linecap:round;stroke-linejoin:round;stroke:rgb(0%,0%,0%);stroke-opacity:1;stroke-miterlimit:4;" d="M 10 459.26 L 10 10.01 L 331.3 10.01 L 331.3 459.26 L 230.9 459.26 " transform="matrix(0.078125,0,0,0.078125,0,0.100781)"/>
<path style="fill:none;stroke-width:20;stroke-linecap:round;stroke-linejoin:round;stroke:rgb(0%,0%,0%);stroke-opacity:1;stroke-miterlimit:4;" d="M 230.9 499.41 L 10 459.26 L 10 10.01 L 230.9 50.16 Z M 230.9 499.41 " transform="matrix(0.078125,0,0,0.078125,0,0.100781)"/>
<path style="fill:none;stroke-width:20;stroke-linecap:round;stroke-linejoin:round;stroke:rgb(0%,0%,0%);stroke-opacity:1;stroke-miterlimit:4;" d="M 180.7 178.11 L 60.2 158.01 L 60.2 107.81 L 180.7 127.91 Z M 180.7 178.11 " transform="matrix(0.078125,0,0,0.078125,0,0.100781)"/>
</g>
</svg>
