<?xml version="1.0" encoding="UTF-8"?>
<svg xmlns="http://www.w3.org/2000/svg" xmlns:xlink="http://www.w3.org/1999/xlink" width="40px" height="40px" viewBox="0 0 40 40" version="1.1">
<g id="surface1">
<path style=" stroke:none;fill-rule:nonzero;fill:rgb(17.254902%,66.274512%,73.725492%);fill-opacity:1;" d="M 15 20 L 6.667969 20 C 5.746094 20 5 19.253906 5 18.332031 L 5 10 L 16.667969 10 L 16.667969 18.332031 C 16.667969 19.253906 15.921875 20 15 20 Z M 35 33.332031 L 35 25 L 23.332031 25 L 23.332031 33.332031 C 23.332031 34.253906 24.078125 35 25 35 L 33.332031 35 C 34.253906 35 35 34.253906 35 33.332031 Z M 35 33.332031 "/>
<path style=" stroke:none;fill-rule:nonzero;fill:rgb(71.764708%,71.764708%,71.764708%);fill-opacity:1;" d="M 15 35 L 6.667969 35 C 5.746094 35 5 34.253906 5 33.332031 L 5 31.667969 L 16.667969 31.667969 L 16.667969 33.332031 C 16.667969 34.253906 15.921875 35 15 35 Z M 35 11.667969 L 35 10 L 23.332031 10 L 23.332031 11.667969 C 23.332031 12.585938 24.078125 13.332031 25 13.332031 L 33.332031 13.332031 C 34.253906 13.332031 35 12.585938 35 11.667969 Z M 35 11.667969 "/>
<path style="fill:none;stroke-width:2;stroke-linecap:round;stroke-linejoin:round;stroke:rgb(0%,0%,0%);stroke-opacity:1;stroke-miterlimit:4;" d="M 9 12 L 4.000781 12 C 3.447656 12 3 11.552344 3 10.999219 L 3 4.000781 C 3 3.447656 3.447656 3 4.000781 3 L 9 3 C 9.553125 3 10.000781 3.447656 10.000781 4.000781 L 10.000781 10.999219 C 10.000781 11.552344 9.553125 12 9 12 Z M 21 7.000781 L 21 4.000781 C 21 3.447656 20.552344 3 19.999219 3 L 15 3 C 14.446875 3 13.999219 3.447656 13.999219 4.000781 L 13.999219 7.000781 C 13.999219 7.551562 14.446875 7.999219 15 7.999219 L 19.999219 7.999219 C 20.552344 7.999219 21 7.551562 21 7.000781 Z M 10.000781 19.999219 L 10.000781 16.999219 C 10.000781 16.448437 9.553125 16.000781 9 16.000781 L 4.000781 16.000781 C 3.447656 16.000781 3 16.448437 3 16.999219 L 3 19.999219 C 3 20.552344 3.447656 21 4.000781 21 L 9 21 C 9.553125 21 10.000781 20.552344 10.000781 19.999219 Z M 21 19.999219 L 21 13.000781 C 21 12.447656 20.552344 12 19.999219 12 L 15 12 C 14.446875 12 13.999219 12.447656 13.999219 13.000781 L 13.999219 19.999219 C 13.999219 20.552344 14.446875 21 15 21 L 19.999219 21 C 20.552344 21 21 20.552344 21 19.999219 Z M 21 19.999219 " transform="matrix(1.666667,0,0,1.666667,0,0)"/>
</g>
</svg>
