<?xml version="1.0" encoding="UTF-8"?>
<svg xmlns="http://www.w3.org/2000/svg" xmlns:xlink="http://www.w3.org/1999/xlink" width="40px" height="40px" viewBox="0 0 40 40" version="1.1">
<g id="surface1">
<path style=" stroke:none;fill-rule:nonzero;fill:rgb(0%,0%,0%);fill-opacity:1;" d="M 16.722656 30.113281 C 19.023438 30.117188 21.285156 29.523438 23.289062 28.390625 L 28.839844 33.941406 C 30.25 35.351562 32.535156 35.351562 33.941406 33.941406 C 35.351562 32.535156 35.351562 30.25 33.941406 28.839844 L 28.386719 23.285156 C 31.339844 18.015625 30.398438 11.421875 26.085938 7.191406 C 21.777344 2.964844 15.167969 2.144531 9.957031 5.199219 C 4.746094 8.25 2.226562 14.414062 3.808594 20.242188 C 5.390625 26.070312 10.679688 30.117188 16.71875 30.117188 Z M 9.613281 9.613281 C 13.007812 6.222656 18.320312 5.699219 22.308594 8.367188 C 26.296875 11.03125 27.847656 16.140625 26.011719 20.574219 C 24.175781 25.003906 19.464844 27.523438 14.757812 26.585938 C 10.054688 25.652344 6.667969 21.523438 6.667969 16.726562 C 6.660156 14.054688 7.71875 11.496094 9.613281 9.613281 Z M 8.445312 16.726562 C 8.445312 15.796875 9.1875 15.042969 10.113281 15.027344 C 10.550781 15.023438 10.976562 15.191406 11.289062 15.5 C 11.601562 15.808594 11.777344 16.226562 11.78125 16.667969 L 11.78125 16.726562 C 11.78125 19.453125 13.996094 21.664062 16.726562 21.667969 C 17.644531 21.667969 18.390625 22.414062 18.390625 23.332031 C 18.390625 24.253906 17.644531 25 16.726562 25 C 12.15625 24.996094 8.453125 21.292969 8.449219 16.726562 Z M 8.445312 16.726562 "/>
</g>
</svg>
