<?xml version="1.0" encoding="UTF-8"?>
<svg xmlns="http://www.w3.org/2000/svg" xmlns:xlink="http://www.w3.org/1999/xlink" width="40px" height="40px" viewBox="0 0 40 40" version="1.1">
<g id="surface1">
<path style=" stroke:none;fill-rule:nonzero;fill:rgb(0%,0%,0%);fill-opacity:1;" d="M 28.660156 11.265625 C 27.925781 10.535156 26.589844 10.535156 25.859375 11.265625 L 23.058594 14.066406 C 22.660156 14.398438 22.457031 14.933594 22.457031 15.464844 C 22.457031 16 22.660156 16.464844 23.058594 16.867188 L 27.792969 21.601562 C 28.191406 22 28.660156 22.199219 29.191406 22.199219 C 29.660156 22.199219 30.191406 22 30.589844 21.601562 L 33.390625 18.800781 C 33.792969 18.464844 33.992188 17.933594 33.992188 17.398438 C 33.992188 16.867188 33.792969 16.398438 33.390625 16 Z M 32.457031 17.933594 L 29.660156 20.734375 C 29.390625 21 28.992188 21 28.726562 20.734375 L 23.992188 16 C 23.859375 15.867188 23.792969 15.734375 23.792969 15.535156 C 23.792969 15.332031 23.859375 15.199219 23.992188 15.066406 L 26.792969 12.199219 C 26.925781 12.066406 27.058594 12 27.257812 12 C 27.457031 12 27.660156 12.066406 27.726562 12.265625 L 32.457031 17 C 32.589844 17.132812 32.660156 17.265625 32.660156 17.464844 C 32.660156 17.667969 32.589844 17.800781 32.457031 17.933594 Z M 32.457031 17.933594 "/>
<path style=" stroke:none;fill-rule:nonzero;fill:rgb(0%,0%,0%);fill-opacity:1;" d="M 27.324219 14.601562 C 27.058594 14.332031 26.660156 14.332031 26.390625 14.601562 C 26.125 14.867188 26.125 15.265625 26.390625 15.535156 L 29.191406 18.332031 C 29.324219 18.464844 29.457031 18.535156 29.660156 18.535156 C 29.792969 18.535156 29.992188 18.464844 30.125 18.332031 C 30.390625 18.066406 30.390625 17.667969 30.125 17.398438 Z M 27.324219 14.601562 "/>
<path style=" stroke:none;fill-rule:nonzero;fill:rgb(0%,0%,0%);fill-opacity:1;" d="M 35.324219 14.066406 L 26.324219 5.066406 C 25.46875 4.210938 24.34375 3.761719 23.203125 3.722656 C 22.191406 1.589844 20.222656 0 17.324219 0 C 14.605469 0 12.699219 1.402344 11.640625 3.339844 C 11.535156 3.335938 11.429688 3.332031 11.324219 3.332031 C 6.925781 3.332031 3.324219 6.933594 3.324219 11.332031 C 3.324219 14.277344 4.9375 16.867188 7.324219 18.253906 L 7.324219 24.667969 C 7.324219 24.867188 7.390625 25 7.523438 25.132812 L 8.390625 26 L 7.523438 26.867188 C 7.257812 27.132812 7.257812 27.535156 7.523438 27.800781 L 8.390625 28.667969 L 7.523438 29.535156 C 7.257812 29.800781 7.257812 30.199219 7.523438 30.464844 L 8.390625 31.332031 L 7.523438 32.199219 C 7.390625 32.332031 7.324219 32.464844 7.324219 32.667969 C 7.324219 32.867188 7.390625 33 7.523438 33.132812 L 8.390625 34 L 7.523438 34.867188 C 7.257812 35.132812 7.257812 35.535156 7.523438 35.800781 L 8.390625 36.667969 L 7.523438 37.535156 C 7.257812 37.800781 7.257812 38.199219 7.523438 38.464844 L 8.859375 39.800781 C 8.992188 39.933594 9.125 40 9.324219 40 L 11.792969 40 C 11.859375 40 11.925781 40 11.992188 40 C 12.003906 40 12.019531 40 12.03125 40 C 12.355469 39.984375 12.585938 39.789062 12.683594 39.492188 L 15.191406 35.734375 C 15.257812 35.601562 15.324219 35.46875 15.324219 35.332031 L 15.324219 18.253906 C 16.410156 17.621094 17.335938 16.742188 18.023438 15.691406 L 25.925781 23.535156 C 26.792969 24.398438 27.992188 24.867188 29.191406 24.867188 C 30.390625 24.867188 31.589844 24.464844 32.523438 23.464844 L 35.324219 20.667969 C 37.125 18.867188 37.125 15.867188 35.324219 14.066406 Z M 24.660156 8.667969 C 24.660156 9.398438 24.058594 10 23.324219 10 C 22.589844 10 21.992188 9.398438 21.992188 8.667969 C 21.992188 8.167969 22.269531 7.730469 22.675781 7.503906 C 22.742188 7.808594 22.984375 8 23.324219 8 C 23.664062 8 23.90625 7.808594 23.972656 7.503906 C 24.382812 7.730469 24.660156 8.167969 24.660156 8.667969 Z M 17.324219 1.332031 C 19.476562 1.332031 20.9375 2.414062 21.78125 3.882812 C 21.023438 4.085938 20.3125 4.480469 19.726562 5.066406 L 17.941406 6.851562 C 16.816406 5.199219 15.09375 3.984375 13.089844 3.53125 C 13.953125 2.242188 15.347656 1.332031 17.324219 1.332031 Z M 10.675781 7.503906 C 10.742188 7.808594 10.984375 8 11.324219 8 C 11.664062 8 11.90625 7.808594 11.972656 7.503906 C 12.382812 7.730469 12.660156 8.167969 12.660156 8.667969 C 12.660156 9.398438 12.058594 10 11.324219 10 C 10.589844 10 9.992188 9.398438 9.992188 8.667969 C 9.992188 8.167969 10.269531 7.730469 10.675781 7.503906 Z M 8.925781 38 L 9.792969 37.132812 C 10.058594 36.867188 10.058594 36.464844 9.792969 36.199219 L 8.925781 35.332031 L 9.792969 34.464844 C 9.925781 34.332031 9.992188 34.199219 9.992188 34 C 9.992188 33.800781 9.925781 33.667969 9.792969 33.535156 L 8.925781 32.667969 L 9.792969 31.800781 C 10.058594 31.535156 10.058594 31.132812 9.792969 30.867188 L 8.925781 30 L 9.792969 29.132812 C 10.058594 28.867188 10.058594 28.464844 9.792969 28.199219 L 8.925781 27.332031 L 9.792969 26.464844 C 9.925781 26.332031 9.992188 26.199219 9.992188 26 C 9.992188 25.800781 9.925781 25.667969 9.792969 25.535156 L 8.660156 24.398438 L 8.660156 18.871094 C 8.757812 18.90625 8.855469 18.941406 8.957031 18.972656 C 9.722656 19.226562 10.5 19.332031 11.324219 19.332031 L 11.324219 38.667969 L 9.589844 38.667969 Z M 13.992188 35.132812 L 12.726562 37.035156 L 12.726562 19.210938 C 13.160156 19.132812 13.582031 19.019531 13.992188 18.871094 Z M 14.472656 17.203125 C 14.421875 17.214844 14.371094 17.234375 14.324219 17.265625 C 14.1875 17.339844 14.046875 17.410156 13.90625 17.476562 C 13.109375 17.8125 12.238281 18 11.324219 18 C 11.121094 18 10.921875 17.988281 10.722656 17.972656 C 9.890625 17.886719 9.078125 17.664062 8.324219 17.265625 C 8.269531 17.230469 8.207031 17.203125 8.144531 17.1875 C 6.074219 16.054688 4.660156 13.851562 4.660156 11.332031 C 4.660156 7.75 7.519531 4.808594 11.070312 4.671875 C 10.925781 5.125 10.820312 5.589844 10.75 6.0625 C 9.558594 6.328125 8.660156 7.398438 8.660156 8.667969 C 8.660156 10.132812 9.859375 11.332031 11.324219 11.332031 C 12.792969 11.332031 13.992188 10.132812 13.992188 8.667969 C 13.992188 7.464844 13.1875 6.445312 12.09375 6.113281 C 12.167969 5.652344 12.289062 5.199219 12.453125 4.765625 C 15.578125 5.304688 17.980469 8.039062 17.992188 11.308594 C 17.992188 11.351562 17.988281 11.394531 17.988281 11.4375 C 17.988281 11.453125 17.988281 11.464844 17.988281 11.480469 C 17.953125 12.464844 17.695312 13.394531 17.257812 14.265625 C 17.222656 14.335938 17.203125 14.410156 17.195312 14.484375 C 16.574219 15.632812 15.621094 16.582031 14.472656 17.203125 Z M 34.324219 19.800781 L 31.523438 22.601562 C 30.191406 23.867188 28.058594 23.867188 26.792969 22.601562 L 18.675781 14.484375 C 18.863281 14.046875 19.015625 13.589844 19.121094 13.117188 C 19.125 13.109375 19.128906 13.097656 19.128906 13.089844 C 19.140625 13.035156 19.152344 12.984375 19.164062 12.933594 C 19.171875 12.894531 19.175781 12.859375 19.183594 12.824219 C 19.191406 12.792969 19.195312 12.761719 19.203125 12.730469 C 19.207031 12.707031 19.210938 12.6875 19.210938 12.667969 C 19.285156 12.230469 19.324219 11.789062 19.324219 11.332031 C 19.324219 11.324219 19.324219 11.3125 19.324219 11.300781 C 19.324219 11.289062 19.324219 11.277344 19.324219 11.265625 C 19.324219 10.132812 19.125 9.066406 18.660156 8.066406 L 20.660156 6.066406 C 21.140625 5.609375 21.726562 5.316406 22.339844 5.191406 C 22.433594 5.492188 22.507812 5.800781 22.558594 6.113281 C 21.460938 6.445312 20.660156 7.464844 20.660156 8.667969 C 20.660156 10.132812 21.859375 11.332031 23.324219 11.332031 C 24.792969 11.332031 25.992188 10.132812 25.992188 8.667969 C 25.992188 7.398438 25.09375 6.328125 23.898438 6.0625 C 23.855469 5.765625 23.800781 5.472656 23.726562 5.183594 C 24.34375 5.308594 24.925781 5.601562 25.390625 6.066406 L 34.324219 15.132812 C 34.992188 15.734375 35.324219 16.601562 35.324219 17.464844 C 35.324219 18.332031 34.925781 19.199219 34.324219 19.800781 Z M 34.324219 19.800781 "/>
</g>
</svg>
