<?xml version="1.0" encoding="UTF-8"?>
<svg xmlns="http://www.w3.org/2000/svg" xmlns:xlink="http://www.w3.org/1999/xlink" width="40px" height="40px" viewBox="0 0 40 40" version="1.1">
<g id="surface1">
<path style=" stroke:none;fill-rule:nonzero;fill:rgb(0%,0%,0%);fill-opacity:1;" d="M 15.832031 17.5 L 20 17.5 C 20.921875 17.5 21.667969 16.753906 21.667969 15.832031 C 21.667969 14.914062 20.921875 14.167969 20 14.167969 L 18.332031 14.167969 L 18.332031 13.332031 C 18.332031 12.414062 17.585938 11.667969 16.667969 11.667969 C 15.746094 11.667969 15 12.414062 15 13.332031 L 15 14.25 C 12.902344 14.675781 11.46875 16.621094 11.683594 18.753906 C 11.898438 20.882812 13.691406 22.503906 15.832031 22.5 L 17.5 22.5 C 17.960938 22.5 18.332031 22.875 18.332031 23.332031 C 18.332031 23.792969 17.960938 24.167969 17.5 24.167969 L 13.332031 24.167969 C 12.414062 24.167969 11.667969 24.914062 11.667969 25.832031 C 11.667969 26.753906 12.414062 27.5 13.332031 27.5 L 15 27.5 L 15 28.332031 C 15 29.253906 15.746094 30 16.667969 30 C 17.585938 30 18.332031 29.253906 18.332031 28.332031 L 18.332031 27.417969 C 20.429688 26.992188 21.863281 25.042969 21.648438 22.914062 C 21.433594 20.785156 19.640625 19.164062 17.5 19.167969 L 15.832031 19.167969 C 15.375 19.167969 15 18.792969 15 18.332031 C 15 17.875 15.375 17.5 15.832031 17.5 Z M 35 20 L 30 20 L 30 5 C 30.003906 4.402344 29.683594 3.847656 29.167969 3.550781 C 28.652344 3.253906 28.015625 3.253906 27.5 3.550781 L 22.5 6.417969 L 17.5 3.550781 C 16.984375 3.253906 16.347656 3.253906 15.832031 3.550781 L 10.832031 6.417969 L 5.832031 3.550781 C 5.316406 3.253906 4.683594 3.253906 4.167969 3.550781 C 3.648438 3.847656 3.332031 4.402344 3.332031 5 L 3.332031 31.667969 C 3.332031 34.429688 5.570312 36.667969 8.332031 36.667969 L 31.667969 36.667969 C 34.429688 36.667969 36.667969 34.429688 36.667969 31.667969 L 36.667969 21.667969 C 36.667969 20.746094 35.921875 20 35 20 Z M 8.332031 33.332031 C 7.414062 33.332031 6.667969 32.585938 6.667969 31.667969 L 6.667969 7.882812 L 10 9.785156 C 10.523438 10.054688 11.144531 10.054688 11.667969 9.785156 L 16.667969 6.917969 L 21.667969 9.785156 C 22.1875 10.054688 22.8125 10.054688 23.332031 9.785156 L 26.667969 7.882812 L 26.667969 31.667969 C 26.671875 32.234375 26.773438 32.800781 26.964844 33.332031 Z M 33.332031 31.667969 C 33.332031 32.585938 32.585938 33.332031 31.667969 33.332031 C 30.746094 33.332031 30 32.585938 30 31.667969 L 30 23.332031 L 33.332031 23.332031 Z M 33.332031 31.667969 "/>
</g>
</svg>
