<?xml version="1.0" encoding="UTF-8"?>
<svg xmlns="http://www.w3.org/2000/svg" xmlns:xlink="http://www.w3.org/1999/xlink" width="40px" height="40px" viewBox="0 0 40 40" version="1.1">
<g id="surface1">
<path style=" stroke:none;fill-rule:nonzero;fill:rgb(0%,0%,0%);fill-opacity:1;" d="M 25.289062 12.535156 C 25.289062 9.648438 22.921875 7.3125 20 7.3125 C 17.078125 7.3125 14.710938 9.648438 14.710938 12.535156 C 14.710938 15.417969 17.078125 17.753906 20 17.753906 C 22.921875 17.753906 25.289062 15.417969 25.289062 12.535156 Z M 25.289062 12.535156 "/>
<path style=" stroke:none;fill-rule:nonzero;fill:rgb(0%,0%,0%);fill-opacity:1;" d="M 11.976562 13.054688 L 12.511719 13.054688 L 12.511719 12.578125 C 12.519531 9.742188 14.132812 7.160156 16.679688 5.910156 C 15.65625 3.554688 13.046875 2.316406 10.574219 3.015625 C 8.101562 3.714844 6.527344 6.132812 6.886719 8.675781 C 7.246094 11.21875 9.429688 13.105469 12 13.089844 Z M 27.511719 12.535156 L 27.511719 13.011719 L 28.042969 13.011719 C 30.578125 12.984375 32.707031 11.101562 33.039062 8.589844 C 33.371094 6.074219 31.800781 3.703125 29.363281 3.019531 C 26.921875 2.339844 24.351562 3.558594 23.332031 5.878906 C 25.878906 7.121094 27.5 9.699219 27.511719 12.535156 Z M 24.765625 18.277344 C 26.976562 18.714844 29.113281 19.464844 31.109375 20.5 C 31.394531 20.65625 31.648438 20.855469 31.867188 21.089844 L 37.777344 21.089844 L 37.777344 17.289062 C 37.78125 16.992188 37.617188 16.71875 37.355469 16.578125 C 34.476562 15.070312 31.273438 14.289062 28.023438 14.300781 L 27.289062 14.300781 C 26.902344 15.867188 26.019531 17.261719 24.765625 18.277344 Z M 7.253906 23.246094 C 7.25 22.105469 7.878906 21.054688 8.890625 20.523438 C 10.886719 19.484375 13.023438 18.738281 15.234375 18.300781 C 13.988281 17.292969 13.101562 15.910156 12.710938 14.355469 L 11.976562 14.355469 C 8.726562 14.34375 5.523438 15.128906 2.644531 16.632812 C 2.382812 16.773438 2.21875 17.046875 2.222656 17.34375 L 2.222656 24.445312 L 7.253906 24.445312 Z M 23.84375 29.65625 L 30.464844 29.65625 L 30.464844 31.210938 L 23.84375 31.210938 Z M 23.84375 29.65625 "/>
<path style=" stroke:none;fill-rule:nonzero;fill:rgb(0%,0%,0%);fill-opacity:1;" d="M 36.457031 23.621094 L 28.820312 23.621094 L 28.820312 22.511719 C 28.820312 21.898438 28.324219 21.398438 27.710938 21.398438 C 27.097656 21.398438 26.601562 21.898438 26.601562 22.511719 L 26.601562 23.621094 L 24.445312 23.621094 L 24.445312 20.476562 C 22.984375 20.171875 21.492188 20.011719 20 20 C 16.492188 19.984375 13.035156 20.832031 9.933594 22.464844 C 9.652344 22.613281 9.476562 22.90625 9.476562 23.222656 L 9.476562 29.457031 L 17.378906 29.457031 L 17.378906 36.222656 C 17.378906 36.835938 17.875 37.332031 18.488281 37.332031 L 36.457031 37.332031 C 37.070312 37.332031 37.566406 36.835938 37.566406 36.222656 L 37.566406 24.734375 C 37.566406 24.121094 37.070312 23.621094 36.457031 23.621094 Z M 35.34375 35.132812 L 19.601562 35.132812 L 19.601562 25.84375 L 26.601562 25.84375 L 26.601562 26.855469 C 26.601562 27.46875 27.097656 27.964844 27.710938 27.964844 C 28.324219 27.964844 28.820312 27.46875 28.820312 26.855469 L 28.820312 25.84375 L 35.34375 25.84375 Z M 35.34375 35.132812 "/>
</g>
</svg>
