<?xml version="1.0" encoding="UTF-8"?>
<svg xmlns="http://www.w3.org/2000/svg" xmlns:xlink="http://www.w3.org/1999/xlink" width="40px" height="40px" viewBox="0 0 40 40" version="1.1">
<g id="surface1">
<path style=" stroke:none;fill-rule:nonzero;fill:rgb(5.882353%,12.156863%,23.529412%);fill-opacity:1;" d="M 26.191406 18.425781 C 25.914062 18.304688 25.636719 18.195312 25.355469 18.09375 C 27.300781 16.519531 28.542969 14.117188 28.542969 11.429688 C 28.542969 6.703125 24.699219 2.859375 19.972656 2.859375 C 15.246094 2.859375 11.402344 6.703125 11.402344 11.429688 C 11.402344 14.121094 12.648438 16.527344 14.59375 18.097656 C 8.570312 20.296875 4.257812 26.085938 4.257812 32.863281 L 7.113281 32.863281 C 7.113281 25.773438 12.882812 20.007812 19.96875 20.007812 C 21.738281 20.007812 23.449219 20.359375 25.054688 21.050781 Z M 19.972656 5.714844 C 23.125 5.714844 25.6875 8.277344 25.6875 11.429688 C 25.6875 14.582031 23.125 17.144531 19.972656 17.144531 C 16.820312 17.144531 14.257812 14.578125 14.257812 11.429688 C 14.257812 8.28125 16.820312 5.714844 19.972656 5.714844 Z M 23.925781 24.863281 C 23.925781 25.261719 24.144531 25.625 24.496094 25.808594 L 29.496094 28.449219 C 29.652344 28.53125 29.824219 28.574219 29.996094 28.574219 C 30.167969 28.574219 30.339844 28.53125 30.496094 28.449219 L 35.496094 25.808594 C 35.847656 25.621094 36.066406 25.257812 36.066406 24.863281 C 36.066406 24.46875 35.847656 24.101562 35.496094 23.917969 L 30.496094 21.273438 C 30.183594 21.109375 29.808594 21.109375 29.496094 21.273438 L 24.496094 23.917969 C 24.144531 24.101562 23.925781 24.464844 23.925781 24.863281 Z M 29.996094 23.433594 L 32.703125 24.863281 L 29.996094 26.292969 L 27.289062 24.863281 Z M 29.996094 23.433594 "/>
<path style=" stroke:none;fill-rule:nonzero;fill:rgb(5.882353%,12.156863%,23.529412%);fill-opacity:1;" d="M 29.996094 29.820312 L 24.253906 26.785156 L 23.253906 28.679688 L 29.996094 32.242188 L 36.710938 28.695312 L 35.710938 26.800781 Z M 29.996094 29.820312 "/>
<path style=" stroke:none;fill-rule:nonzero;fill:rgb(5.882353%,12.156863%,23.529412%);fill-opacity:1;" d="M 29.996094 33.257812 L 24.253906 30.226562 L 23.253906 32.117188 L 29.996094 35.683594 L 36.6875 32.144531 L 35.6875 30.25 Z M 29.996094 33.257812 "/>
</g>
</svg>
