<?xml version="1.0" encoding="UTF-8"?>
<svg xmlns="http://www.w3.org/2000/svg" xmlns:xlink="http://www.w3.org/1999/xlink" width="40px" height="40px" viewBox="0 0 40 40" version="1.1">
<g id="surface1">
<path style=" stroke:none;fill-rule:nonzero;fill:rgb(0%,0%,0%);fill-opacity:1;" d="M 20 12.453125 C 22.847656 12.453125 25.167969 10.136719 25.167969 7.285156 C 25.167969 4.4375 22.847656 2.121094 20 2.121094 C 17.148438 2.121094 14.832031 4.4375 14.832031 7.285156 C 14.832031 10.136719 17.148438 12.453125 20 12.453125 Z M 20 4.613281 C 21.472656 4.613281 22.671875 5.8125 22.671875 7.285156 C 22.671875 8.761719 21.472656 9.960938 20 9.960938 C 18.527344 9.960938 17.328125 8.761719 17.328125 7.285156 C 17.328125 5.8125 18.527344 4.613281 20 4.613281 Z M 20 4.613281 "/>
<path style=" stroke:none;fill-rule:nonzero;fill:rgb(0%,0%,0%);fill-opacity:1;" d="M 11.667969 24.902344 L 28.332031 24.902344 C 29.023438 24.902344 29.582031 24.34375 29.582031 23.652344 C 29.582031 18.371094 25.28125 14.074219 20 14.074219 C 14.71875 14.074219 10.417969 18.371094 10.417969 23.652344 C 10.417969 24.34375 10.976562 24.902344 11.667969 24.902344 Z M 26.976562 22.40625 L 13.023438 22.40625 C 14.40625 14.65625 25.59375 14.664062 26.976562 22.40625 Z M 26.976562 22.40625 "/>
<path style=" stroke:none;fill-rule:nonzero;fill:rgb(0%,0%,0%);fill-opacity:1;" d="M 25.035156 29.6875 L 22.328125 29.296875 L 21.117188 26.84375 C 20.660156 25.917969 19.339844 25.917969 18.882812 26.84375 L 17.671875 29.296875 L 14.964844 29.6875 C 13.945312 29.835938 13.535156 31.097656 14.273438 31.816406 L 16.230469 33.726562 L 15.769531 36.421875 C 15.59375 37.4375 16.667969 38.214844 17.578125 37.734375 L 20 36.460938 L 22.417969 37.734375 C 23.328125 38.210938 24.40625 37.445312 24.230469 36.421875 L 23.769531 33.726562 L 25.726562 31.816406 C 26.464844 31.097656 26.054688 29.835938 25.035156 29.6875 Z M 21.34375 34.351562 C 19.898438 33.589844 20.011719 33.636719 18.65625 34.351562 C 18.917969 32.835938 19 32.9375 17.824219 31.792969 C 19.347656 31.574219 19.273438 31.683594 20 30.214844 C 20.722656 31.679688 20.648438 31.574219 22.175781 31.792969 C 21.003906 32.933594 21.082031 32.832031 21.34375 34.351562 Z M 21.34375 34.351562 "/>
<path style=" stroke:none;fill-rule:nonzero;fill:rgb(0%,0%,0%);fill-opacity:1;" d="M 11.136719 29.6875 L 8.429688 29.296875 L 7.222656 26.84375 C 6.765625 25.917969 5.441406 25.917969 4.984375 26.84375 L 3.773438 29.296875 L 1.066406 29.6875 C 0.046875 29.835938 -0.363281 31.097656 0.378906 31.816406 L 2.335938 33.726562 L 1.871094 36.421875 C 1.699219 37.4375 2.769531 38.214844 3.683594 37.734375 L 6.101562 36.460938 L 8.523438 37.734375 C 9.429688 38.210938 10.507812 37.445312 10.332031 36.421875 L 9.871094 33.726562 L 11.828125 31.816406 C 12.566406 31.097656 12.160156 29.835938 11.136719 29.6875 Z M 7.445312 34.351562 C 6.035156 33.609375 6.171875 33.609375 4.757812 34.351562 C 5.019531 32.835938 5.101562 32.9375 3.929688 31.792969 C 5.453125 31.574219 5.378906 31.683594 6.101562 30.214844 C 6.824219 31.679688 6.75 31.574219 8.277344 31.792969 C 7.175781 32.867188 7.167969 32.738281 7.445312 34.351562 Z M 7.445312 34.351562 "/>
<path style=" stroke:none;fill-rule:nonzero;fill:rgb(0%,0%,0%);fill-opacity:1;" d="M 38.929688 29.6875 L 36.226562 29.296875 L 35.015625 26.84375 C 34.558594 25.917969 33.234375 25.917969 32.777344 26.84375 L 31.570312 29.296875 L 28.863281 29.6875 C 27.84375 29.835938 27.433594 31.097656 28.171875 31.816406 L 30.128906 33.726562 L 29.667969 36.421875 C 29.492188 37.4375 30.5625 38.214844 31.476562 37.734375 L 33.898438 36.460938 L 36.316406 37.734375 C 37.226562 38.210938 38.304688 37.445312 38.128906 36.421875 L 37.664062 33.726562 L 39.625 31.816406 C 40.363281 31.097656 39.953125 29.835938 38.929688 29.6875 Z M 35.242188 34.351562 C 33.796875 33.589844 33.917969 33.632812 32.554688 34.351562 C 32.8125 32.835938 32.894531 32.9375 31.722656 31.792969 C 33.339844 31.558594 33.214844 31.597656 33.898438 30.214844 C 34.621094 31.679688 34.546875 31.574219 36.070312 31.792969 C 34.902344 32.933594 34.980469 32.832031 35.242188 34.351562 Z M 35.242188 34.351562 "/>
</g>
</svg>
