<?xml version="1.0" encoding="UTF-8"?>
<svg xmlns="http://www.w3.org/2000/svg" xmlns:xlink="http://www.w3.org/1999/xlink" width="40px" height="40px" viewBox="0 0 40 40" version="1.1">
<g id="surface1">
<path style=" stroke:none;fill-rule:nonzero;fill:rgb(0%,0%,0%);fill-opacity:1;" d="M 16.359375 14.527344 C 15.515625 14.808594 15.058594 15.71875 15.339844 16.5625 C 15.5625 17.238281 16.191406 17.664062 16.867188 17.664062 C 17.035156 17.664062 17.207031 17.640625 17.375 17.582031 C 18.214844 17.304688 18.671875 16.390625 18.394531 15.546875 C 18.113281 14.707031 17.203125 14.25 16.359375 14.527344 Z M 17.128906 16.839844 C 16.695312 16.984375 16.222656 16.75 16.082031 16.316406 C 15.9375 15.882812 16.171875 15.414062 16.605469 15.269531 C 16.691406 15.242188 16.78125 15.226562 16.867188 15.226562 C 17.210938 15.226562 17.539062 15.449219 17.652344 15.792969 C 17.796875 16.226562 17.5625 16.699219 17.128906 16.839844 Z M 17.128906 16.839844 "/>
<path style=" stroke:none;fill-rule:nonzero;fill:rgb(0%,0%,0%);fill-opacity:1;" d="M 23.574219 17.867188 C 23.296875 17.023438 22.382812 16.566406 21.539062 16.847656 C 20.699219 17.125 20.242188 18.039062 20.519531 18.882812 C 20.535156 18.929688 20.554688 18.980469 20.574219 19.027344 L 18.953125 19.027344 L 21.757812 13.4375 L 21.058594 13.085938 L 18.078125 19.027344 L 13.941406 19.027344 L 13.941406 19.808594 L 26.46875 19.808594 L 26.46875 19.027344 L 23.519531 19.027344 C 23.675781 18.671875 23.707031 18.261719 23.574219 17.867188 Z M 21.261719 18.636719 C 21.117188 18.203125 21.351562 17.734375 21.785156 17.589844 C 22.21875 17.445312 22.691406 17.679688 22.832031 18.113281 C 22.945312 18.453125 22.832031 18.8125 22.558594 19.027344 L 21.535156 19.027344 C 21.410156 18.925781 21.3125 18.792969 21.261719 18.636719 Z M 21.261719 18.636719 "/>
<path style=" stroke:none;fill-rule:nonzero;fill:rgb(0%,0%,0%);fill-opacity:1;" d="M 18.515625 28.898438 L 17.964844 28.347656 L 24.007812 22.304688 L 24.558594 22.855469 Z M 18.515625 28.898438 "/>
<path style=" stroke:none;fill-rule:nonzero;fill:rgb(0%,0%,0%);fill-opacity:1;" d="M 19.09375 22.191406 C 18.203125 22.191406 17.480469 22.914062 17.480469 23.804688 C 17.480469 24.691406 18.203125 25.414062 19.09375 25.414062 C 19.980469 25.414062 20.703125 24.691406 20.703125 23.804688 C 20.703125 22.914062 19.980469 22.191406 19.09375 22.191406 Z M 19.09375 24.632812 C 18.636719 24.632812 18.261719 24.257812 18.261719 23.804688 C 18.261719 23.347656 18.636719 22.972656 19.09375 22.972656 C 19.546875 22.972656 19.921875 23.347656 19.921875 23.804688 C 19.921875 24.257812 19.546875 24.632812 19.09375 24.632812 Z M 19.09375 24.632812 "/>
<path style=" stroke:none;fill-rule:nonzero;fill:rgb(0%,0%,0%);fill-opacity:1;" d="M 21.667969 27.636719 C 21.667969 28.523438 22.390625 29.246094 23.277344 29.246094 C 24.167969 29.246094 24.886719 28.523438 24.886719 27.636719 C 24.886719 26.75 24.167969 26.027344 23.277344 26.027344 C 22.390625 26.027344 21.667969 26.75 21.667969 27.636719 Z M 24.105469 27.636719 C 24.105469 28.09375 23.734375 28.464844 23.277344 28.464844 C 22.820312 28.464844 22.449219 28.09375 22.449219 27.636719 C 22.449219 27.179688 22.820312 26.808594 23.277344 26.808594 C 23.734375 26.808594 24.105469 27.179688 24.105469 27.636719 Z M 24.105469 27.636719 "/>
<path style=" stroke:none;fill-rule:nonzero;fill:rgb(0%,0%,0%);fill-opacity:1;" d="M 5.472656 19.808594 L 8.9375 19.808594 C 9.832031 19.808594 10.5625 20.757812 10.5625 21.925781 L 11.34375 21.925781 C 11.34375 20.757812 12.074219 19.808594 12.972656 19.808594 L 12.972656 19.027344 C 12.074219 19.027344 11.34375 18.074219 11.34375 16.90625 L 10.5625 16.90625 C 10.5625 18.074219 9.832031 19.027344 8.9375 19.027344 L 4.691406 19.027344 L 4.691406 22.609375 L 2.683594 16.550781 L 5.96875 15.460938 L 5.722656 14.722656 L 1.695312 16.058594 L 4.691406 25.089844 L 4.691406 32.410156 L 26.46875 32.410156 L 26.46875 31.628906 L 5.472656 31.628906 Z M 10.953125 18.488281 C 11.160156 18.867188 11.4375 19.1875 11.765625 19.417969 C 11.4375 19.644531 11.160156 19.964844 10.953125 20.347656 C 10.746094 19.964844 10.46875 19.644531 10.140625 19.417969 C 10.46875 19.1875 10.746094 18.867188 10.953125 18.488281 Z M 10.953125 18.488281 "/>
<path style=" stroke:none;fill-rule:nonzero;fill:rgb(0%,0%,0%);fill-opacity:1;" d="M 28.90625 31.628906 L 31.011719 31.628906 L 31.011719 32.410156 L 28.90625 32.410156 Z M 28.90625 31.628906 "/>
<path style=" stroke:none;fill-rule:nonzero;fill:rgb(0%,0%,0%);fill-opacity:1;" d="M 37.914062 23.203125 L 38.304688 23.203125 L 38.304688 19.027344 L 28.90625 19.027344 L 28.90625 19.808594 L 37.523438 19.808594 L 37.523438 22.445312 C 35.917969 22.640625 34.667969 24.011719 34.667969 25.671875 C 34.667969 27.328125 35.917969 28.703125 37.523438 28.894531 L 37.523438 31.628906 L 36.035156 31.628906 C 35.140625 31.628906 34.410156 30.679688 34.410156 29.507812 L 33.628906 29.507812 C 33.628906 30.679688 32.898438 31.628906 32 31.628906 L 32 32.410156 C 32.898438 32.410156 33.628906 33.363281 33.628906 34.53125 L 34.410156 34.53125 C 34.410156 33.363281 35.136719 32.414062 36.035156 32.410156 L 38.304688 32.410156 L 38.304688 28.136719 L 37.914062 28.136719 C 36.554688 28.136719 35.449219 27.03125 35.449219 25.671875 C 35.449219 24.3125 36.554688 23.203125 37.914062 23.203125 Z M 34.019531 32.949219 C 33.8125 32.566406 33.53125 32.25 33.207031 32.019531 C 33.53125 31.789062 33.8125 31.472656 34.019531 31.089844 C 34.226562 31.472656 34.503906 31.789062 34.832031 32.019531 C 34.503906 32.25 34.226562 32.566406 34.019531 32.949219 Z M 34.019531 32.949219 "/>
<path style=" stroke:none;fill-rule:nonzero;fill:rgb(0%,0%,0%);fill-opacity:1;" d="M 27.273438 29.574219 L 28.054688 29.574219 L 28.054688 30.433594 L 27.273438 30.433594 Z M 27.273438 29.574219 "/>
<path style=" stroke:none;fill-rule:nonzero;fill:rgb(0%,0%,0%);fill-opacity:1;" d="M 27.273438 24.417969 L 28.054688 24.417969 L 28.054688 25.277344 L 27.273438 25.277344 Z M 27.273438 24.417969 "/>
<path style=" stroke:none;fill-rule:nonzero;fill:rgb(0%,0%,0%);fill-opacity:1;" d="M 27.273438 26.136719 L 28.054688 26.136719 L 28.054688 26.996094 L 27.273438 26.996094 Z M 27.273438 26.136719 "/>
<path style=" stroke:none;fill-rule:nonzero;fill:rgb(0%,0%,0%);fill-opacity:1;" d="M 27.273438 31.292969 L 28.054688 31.292969 L 28.054688 32.152344 L 27.273438 32.152344 Z M 27.273438 31.292969 "/>
<path style=" stroke:none;fill-rule:nonzero;fill:rgb(0%,0%,0%);fill-opacity:1;" d="M 27.273438 27.855469 L 28.054688 27.855469 L 28.054688 28.714844 L 27.273438 28.714844 Z M 27.273438 27.855469 "/>
<path style=" stroke:none;fill-rule:nonzero;fill:rgb(0%,0%,0%);fill-opacity:1;" d="M 27.273438 19.261719 L 28.054688 19.261719 L 28.054688 20.121094 L 27.273438 20.121094 Z M 27.273438 19.261719 "/>
<path style=" stroke:none;fill-rule:nonzero;fill:rgb(0%,0%,0%);fill-opacity:1;" d="M 27.273438 20.980469 L 28.054688 20.980469 L 28.054688 21.839844 L 27.273438 21.839844 Z M 27.273438 20.980469 "/>
<path style=" stroke:none;fill-rule:nonzero;fill:rgb(0%,0%,0%);fill-opacity:1;" d="M 27.273438 22.699219 L 28.054688 22.699219 L 28.054688 23.558594 L 27.273438 23.558594 Z M 27.273438 22.699219 "/>
<path style=" stroke:none;fill-rule:nonzero;fill:rgb(0%,0%,0%);fill-opacity:1;" d="M 30.210938 26.894531 L 30.992188 26.894531 L 30.992188 28.449219 L 30.210938 28.449219 Z M 30.210938 26.894531 "/>
<path style=" stroke:none;fill-rule:nonzero;fill:rgb(0%,0%,0%);fill-opacity:1;" d="M 30.210938 22.707031 L 30.992188 22.707031 L 30.992188 26.113281 L 30.210938 26.113281 Z M 30.210938 22.707031 "/>
<path style=" stroke:none;fill-rule:nonzero;fill:rgb(0%,0%,0%);fill-opacity:1;" d="M 31.609375 22.707031 L 32.390625 22.707031 L 32.390625 28.449219 L 31.609375 28.449219 Z M 31.609375 22.707031 "/>
<path style=" stroke:none;fill-rule:nonzero;fill:rgb(0%,0%,0%);fill-opacity:1;" d="M 8.707031 23.269531 L 15.652344 23.269531 L 15.652344 24.050781 L 8.707031 24.050781 Z M 8.707031 23.269531 "/>
<path style=" stroke:none;fill-rule:nonzero;fill:rgb(0%,0%,0%);fill-opacity:1;" d="M 7.015625 23.269531 L 7.925781 23.269531 L 7.925781 24.050781 L 7.015625 24.050781 Z M 7.015625 23.269531 "/>
<path style=" stroke:none;fill-rule:nonzero;fill:rgb(0%,0%,0%);fill-opacity:1;" d="M 7.015625 27.578125 L 13.0625 27.578125 L 13.0625 28.359375 L 7.015625 28.359375 Z M 7.015625 27.578125 "/>
<path style=" stroke:none;fill-rule:nonzero;fill:rgb(0%,0%,0%);fill-opacity:1;" d="M 14.457031 25.421875 L 15.652344 25.421875 L 15.652344 26.203125 L 14.457031 26.203125 Z M 14.457031 25.421875 "/>
<path style=" stroke:none;fill-rule:nonzero;fill:rgb(0%,0%,0%);fill-opacity:1;" d="M 7.015625 25.421875 L 13.839844 25.421875 L 13.839844 26.203125 L 7.015625 26.203125 Z M 7.015625 25.421875 "/>
<path style=" stroke:none;fill-rule:nonzero;fill:rgb(0%,0%,0%);fill-opacity:1;" d="M 22.363281 9.199219 L 22.609375 9.941406 L 10.722656 13.886719 L 10.476562 13.144531 Z M 22.363281 9.199219 "/>
<path style=" stroke:none;fill-rule:nonzero;fill:rgb(0%,0%,0%);fill-opacity:1;" d="M 33.101562 6.457031 L 33.933594 8.960938 C 33.277344 9.269531 32.746094 9.785156 32.417969 10.441406 C 32.027344 11.21875 31.964844 12.097656 32.238281 12.921875 C 32.511719 13.746094 33.089844 14.414062 33.863281 14.800781 C 34.519531 15.132812 35.253906 15.226562 35.964844 15.082031 L 36.949219 18.046875 L 37.691406 17.800781 L 36.46875 14.117188 L 36.097656 14.242188 C 35.472656 14.449219 34.800781 14.398438 34.214844 14.105469 C 33.625 13.808594 33.1875 13.300781 32.980469 12.675781 C 32.769531 12.050781 32.820312 11.382812 33.113281 10.792969 C 33.410156 10.203125 33.917969 9.765625 34.542969 9.558594 L 34.914062 9.4375 L 33.597656 5.46875 L 24.675781 8.429688 L 24.921875 9.171875 Z M 33.101562 6.457031 "/>
<path style=" stroke:none;fill-rule:nonzero;fill:rgb(0%,0%,0%);fill-opacity:1;" d="M 24.753906 11.367188 L 24.015625 11.613281 L 23.742188 10.796875 L 24.484375 10.550781 Z M 24.753906 11.367188 "/>
<path style=" stroke:none;fill-rule:nonzero;fill:rgb(0%,0%,0%);fill-opacity:1;" d="M 26.179688 18.136719 L 25.910156 17.320312 L 26.648438 17.074219 L 26.921875 17.890625 Z M 26.179688 18.136719 "/>
<path style=" stroke:none;fill-rule:nonzero;fill:rgb(0%,0%,0%);fill-opacity:1;" d="M 23.945312 8.921875 L 24.214844 9.734375 L 23.472656 9.980469 L 23.203125 9.167969 Z M 23.945312 8.921875 "/>
<path style=" stroke:none;fill-rule:nonzero;fill:rgb(0%,0%,0%);fill-opacity:1;" d="M 26.109375 15.445312 L 26.378906 16.261719 L 25.636719 16.507812 L 25.367188 15.691406 Z M 26.109375 15.445312 "/>
<path style=" stroke:none;fill-rule:nonzero;fill:rgb(0%,0%,0%);fill-opacity:1;" d="M 24.558594 13.246094 L 24.285156 12.429688 L 25.027344 12.183594 L 25.296875 13 Z M 24.558594 13.246094 "/>
<path style=" stroke:none;fill-rule:nonzero;fill:rgb(0%,0%,0%);fill-opacity:1;" d="M 25.570312 13.8125 L 25.839844 14.628906 L 25.097656 14.875 L 24.828125 14.058594 Z M 25.570312 13.8125 "/>
<path style=" stroke:none;fill-rule:nonzero;fill:rgb(0%,0%,0%);fill-opacity:1;" d="M 28.324219 15.507812 L 29.066406 15.261719 L 29.554688 16.738281 L 28.8125 16.984375 Z M 28.324219 15.507812 "/>
<path style=" stroke:none;fill-rule:nonzero;fill:rgb(0%,0%,0%);fill-opacity:1;" d="M 27.007812 11.535156 L 27.746094 11.289062 L 28.820312 14.523438 L 28.078125 14.769531 Z M 27.007812 11.535156 "/>
<path style=" stroke:none;fill-rule:nonzero;fill:rgb(0%,0%,0%);fill-opacity:1;" d="M 30.953125 16.277344 L 30.210938 16.523438 L 28.402344 11.070312 L 29.144531 10.824219 Z M 30.953125 16.277344 "/>
</g>
</svg>
