<?xml version="1.0" encoding="UTF-8"?>
<svg xmlns="http://www.w3.org/2000/svg" xmlns:xlink="http://www.w3.org/1999/xlink" width="40px" height="40px" viewBox="0 0 40 40" version="1.1">
<g id="surface1">
<path style=" stroke:none;fill-rule:nonzero;fill:rgb(0%,0%,0%);fill-opacity:1;" d="M 1.554688 12.492188 L 10.660156 16.25 C 10.828125 16.316406 11 16.351562 11.171875 16.351562 C 11.636719 16.351562 12.082031 16.113281 12.332031 15.691406 L 16.433594 8.785156 L 23.925781 5.101562 L 24.15625 8.503906 C 24.164062 8.605469 24.230469 8.691406 24.328125 8.71875 C 24.421875 8.75 24.527344 8.714844 24.589844 8.636719 L 30.867188 0.453125 C 30.929688 0.371094 30.941406 0.261719 30.894531 0.167969 C 30.847656 0.078125 30.753906 0.0195312 30.652344 0.0195312 L 20.339844 0 C 20.238281 0 20.148438 0.0625 20.113281 0.15625 C 20.078125 0.25 20.101562 0.355469 20.179688 0.425781 L 22.734375 2.6875 L 14.886719 6.550781 C 14.652344 6.664062 14.457031 6.84375 14.324219 7.070312 L 10.609375 13.320312 L 2.578125 10.007812 C 1.890625 9.722656 1.105469 10.050781 0.824219 10.738281 C 0.539062 11.425781 0.867188 12.210938 1.554688 12.492188 Z M 1.554688 12.492188 "/>
<path style=" stroke:none;fill-rule:nonzero;fill:rgb(0%,0%,0%);fill-opacity:1;" d="M 37.933594 35.964844 L 2.066406 35.964844 C 0.949219 35.964844 0.046875 36.867188 0.046875 37.984375 C 0.046875 39.097656 0.949219 40 2.066406 40 L 37.933594 40 C 39.046875 40 39.953125 39.097656 39.953125 37.984375 C 39.953125 36.867188 39.046875 35.964844 37.933594 35.964844 Z M 37.933594 35.964844 "/>
<path style=" stroke:none;fill-rule:nonzero;fill:rgb(0%,0%,0%);fill-opacity:1;" d="M 4.058594 19.542969 C 3.609375 19.542969 3.246094 19.910156 3.246094 20.359375 L 3.246094 32.460938 C 3.246094 32.910156 3.609375 33.273438 4.058594 33.273438 L 8.816406 33.273438 C 9.269531 33.273438 9.632812 32.910156 9.632812 32.460938 L 9.632812 20.359375 C 9.632812 19.910156 9.269531 19.542969 8.816406 19.542969 Z M 4.058594 19.542969 "/>
<path style=" stroke:none;fill-rule:nonzero;fill:rgb(0%,0%,0%);fill-opacity:1;" d="M 30.367188 6.628906 L 30.367188 32.460938 C 30.367188 32.910156 30.734375 33.273438 31.183594 33.273438 L 35.941406 33.273438 C 36.390625 33.273438 36.757812 32.910156 36.757812 32.460938 L 36.757812 6.628906 C 36.757812 6.179688 36.390625 5.8125 35.941406 5.8125 L 31.183594 5.8125 C 30.734375 5.8125 30.367188 6.179688 30.367188 6.628906 Z M 30.367188 6.628906 "/>
<path style=" stroke:none;fill-rule:nonzero;fill:rgb(0%,0%,0%);fill-opacity:1;" d="M 22.140625 13.015625 C 21.691406 13.015625 21.328125 13.378906 21.328125 13.832031 L 21.328125 32.460938 C 21.328125 32.910156 21.691406 33.273438 22.140625 33.273438 L 26.902344 33.273438 C 27.351562 33.273438 27.714844 32.910156 27.714844 32.460938 L 27.714844 13.832031 C 27.714844 13.378906 27.351562 13.015625 26.902344 13.015625 Z M 22.140625 13.015625 "/>
<path style=" stroke:none;fill-rule:nonzero;fill:rgb(0%,0%,0%);fill-opacity:1;" d="M 13.101562 23.144531 C 12.652344 23.144531 12.285156 23.511719 12.285156 23.960938 L 12.285156 32.460938 C 12.285156 32.910156 12.652344 33.273438 13.101562 33.273438 L 17.859375 33.273438 C 18.308594 33.273438 18.675781 32.910156 18.675781 32.460938 L 18.675781 23.960938 C 18.675781 23.511719 18.308594 23.144531 17.859375 23.144531 Z M 13.101562 23.144531 "/>
</g>
</svg>
