<?xml version="1.0" encoding="UTF-8"?>
<svg xmlns="http://www.w3.org/2000/svg" xmlns:xlink="http://www.w3.org/1999/xlink" width="40px" height="40px" viewBox="0 0 40 40" version="1.1">
<g id="surface1">
<path style=" stroke:none;fill-rule:nonzero;fill:rgb(12.941177%,12.941177%,12.941177%);fill-opacity:1;" d="M 30 3.332031 C 32.210938 3.332031 34.015625 5.050781 34.15625 7.226562 L 34.167969 7.5 L 34.167969 31.25 C 34.167969 31.882812 33.695312 32.40625 33.085938 32.488281 L 32.917969 32.5 L 9.167969 32.5 C 9.167969 33.355469 9.808594 34.058594 10.640625 34.15625 L 10.832031 34.167969 L 32.917969 34.167969 C 33.605469 34.167969 34.167969 34.726562 34.167969 35.417969 C 34.167969 36.050781 33.695312 36.574219 33.085938 36.65625 L 32.917969 36.667969 L 10.832031 36.667969 C 8.625 36.667969 6.816406 34.949219 6.675781 32.773438 L 6.667969 32.5 L 6.667969 7.5 C 6.667969 5.289062 8.386719 3.484375 10.558594 3.34375 L 10.832031 3.332031 Z M 30 5.832031 L 10.832031 5.832031 C 9.980469 5.832031 9.273438 6.476562 9.179688 7.304688 L 9.167969 7.5 L 9.167969 30 L 31.667969 30 L 31.667969 7.5 C 31.667969 6.644531 31.023438 5.941406 30.195312 5.84375 Z M 18.371094 11.667969 C 18.800781 11.679688 19.183594 11.910156 19.402344 12.269531 L 19.484375 12.429688 L 23.09375 20.964844 L 24.753906 18.121094 C 24.945312 17.792969 25.273438 17.570312 25.644531 17.515625 L 25.832031 17.5 L 27.917969 17.5 C 28.605469 17.5 29.167969 18.058594 29.167969 18.75 C 29.167969 19.382812 28.695312 19.90625 28.085938 19.988281 L 27.917969 20 L 26.550781 20 L 23.996094 24.378906 C 23.757812 24.789062 23.308594 25.027344 22.835938 24.996094 C 22.421875 24.972656 22.054688 24.742188 21.84375 24.394531 L 21.765625 24.238281 L 18.238281 15.902344 L 16.535156 19.308594 C 16.347656 19.679688 15.996094 19.929688 15.59375 19.988281 L 15.417969 20 L 12.917969 20 C 12.226562 20 11.667969 19.441406 11.667969 18.75 C 11.667969 18.117188 12.136719 17.59375 12.746094 17.511719 L 12.917969 17.5 L 14.644531 17.5 L 17.214844 12.359375 C 17.433594 11.921875 17.886719 11.652344 18.371094 11.667969 Z M 18.371094 11.667969 "/>
</g>
</svg>
