<?xml version="1.0" encoding="UTF-8"?>
<svg xmlns="http://www.w3.org/2000/svg" xmlns:xlink="http://www.w3.org/1999/xlink" width="40px" height="40px" viewBox="0 0 40 40" version="1.1">
<g id="surface1">
<path style=" stroke:none;fill-rule:nonzero;fill:rgb(0%,0%,0%);fill-opacity:1;" d="M 13.554688 31.003906 L 10.203125 31.003906 C 9.398438 31.003906 8.742188 31.65625 8.742188 32.464844 L 8.742188 38.539062 C 8.742188 39.34375 9.398438 40 10.203125 40 L 13.554688 40 C 14.359375 40 15.015625 39.34375 15.015625 38.539062 L 15.015625 32.464844 C 15.015625 31.65625 14.363281 31.003906 13.554688 31.003906 Z M 13.453125 38.4375 L 10.308594 38.4375 L 10.308594 32.566406 L 13.453125 32.566406 Z M 13.453125 38.4375 "/>
<path style=" stroke:none;fill-rule:nonzero;fill:rgb(0%,0%,0%);fill-opacity:1;" d="M 21.609375 27.476562 L 18.257812 27.476562 C 17.453125 27.476562 16.796875 28.132812 16.796875 28.9375 L 16.796875 38.539062 C 16.796875 39.34375 17.453125 40 18.257812 40 L 21.609375 40 C 22.414062 40 23.070312 39.34375 23.070312 38.539062 L 23.070312 28.9375 C 23.070312 28.132812 22.414062 27.476562 21.609375 27.476562 Z M 21.507812 38.4375 L 18.363281 38.4375 L 18.363281 29.042969 L 21.507812 29.042969 Z M 21.507812 38.4375 "/>
<path style=" stroke:none;fill-rule:nonzero;fill:rgb(0%,0%,0%);fill-opacity:1;" d="M 29.796875 21.410156 L 26.445312 21.410156 C 25.640625 21.410156 24.984375 22.0625 24.984375 22.871094 L 24.984375 38.539062 C 24.984375 39.34375 25.640625 40 26.445312 40 L 29.796875 40 C 30.601562 40 31.257812 39.34375 31.257812 38.539062 L 31.257812 22.871094 C 31.257812 22.0625 30.601562 21.410156 29.796875 21.410156 Z M 29.691406 38.4375 L 26.546875 38.4375 L 26.546875 22.972656 L 29.691406 22.972656 Z M 29.691406 38.4375 "/>
<path style=" stroke:none;fill-rule:nonzero;fill:rgb(0%,0%,0%);fill-opacity:1;" d="M 21.40625 19.699219 C 26.835938 19.699219 31.257812 15.28125 31.257812 9.851562 C 31.257812 4.417969 26.835938 0 21.40625 0 C 15.976562 0 11.554688 4.417969 11.554688 9.851562 C 11.554688 15.28125 15.976562 19.699219 21.40625 19.699219 Z M 21.40625 1.5625 C 25.976562 1.5625 29.691406 5.28125 29.691406 9.851562 C 29.691406 14.417969 25.976562 18.136719 21.40625 18.136719 C 16.835938 18.136719 13.121094 14.417969 13.121094 9.851562 C 13.121094 5.28125 16.835938 1.5625 21.40625 1.5625 Z M 21.40625 1.5625 "/>
<path style=" stroke:none;fill-rule:nonzero;fill:rgb(0%,0%,0%);fill-opacity:1;" d="M 19.667969 12.371094 C 19.667969 11.9375 19.316406 11.585938 18.886719 11.585938 C 18.453125 11.585938 18.105469 11.9375 18.105469 12.371094 C 18.105469 13.921875 19.179688 15.226562 20.625 15.578125 L 20.625 16.386719 C 20.625 16.820312 20.972656 17.171875 21.40625 17.171875 C 21.839844 17.171875 22.1875 16.820312 22.1875 16.386719 L 22.1875 15.578125 C 23.632812 15.226562 24.707031 13.921875 24.707031 12.371094 C 24.707031 10.820312 23.632812 9.515625 22.1875 9.164062 L 22.1875 5.78125 C 22.753906 6.066406 23.144531 6.652344 23.144531 7.328125 C 23.144531 7.761719 23.492188 8.113281 23.925781 8.113281 C 24.359375 8.113281 24.707031 7.761719 24.707031 7.328125 C 24.707031 5.777344 23.632812 4.476562 22.1875 4.121094 L 22.1875 3.3125 C 22.1875 2.878906 21.839844 2.53125 21.40625 2.53125 C 20.972656 2.53125 20.625 2.878906 20.625 3.3125 L 20.625 4.121094 C 19.179688 4.476562 18.105469 5.777344 18.105469 7.328125 C 18.105469 8.882812 19.179688 10.183594 20.625 10.539062 L 20.625 13.917969 C 20.058594 13.632812 19.667969 13.046875 19.667969 12.371094 Z M 23.144531 12.371094 C 23.144531 13.046875 22.753906 13.632812 22.1875 13.917969 L 22.1875 10.820312 C 22.753906 11.105469 23.144531 11.691406 23.144531 12.371094 Z M 19.667969 7.328125 C 19.667969 6.652344 20.058594 6.066406 20.625 5.78125 L 20.625 8.878906 C 20.058594 8.59375 19.667969 8.007812 19.667969 7.328125 Z M 19.667969 7.328125 "/>
<path style=" stroke:none;fill-rule:nonzero;fill:rgb(0%,0%,0%);fill-opacity:1;" d="M 12.152344 28.464844 C 12.28125 28.464844 12.410156 28.433594 12.527344 28.367188 L 19.554688 24.53125 L 19.210938 25.703125 C 19.089844 26.121094 19.328125 26.554688 19.742188 26.675781 C 19.8125 26.699219 19.886719 26.707031 19.960938 26.707031 C 20.300781 26.707031 20.609375 26.488281 20.710938 26.144531 L 21.589844 23.160156 C 21.648438 22.960938 21.625 22.746094 21.523438 22.566406 C 21.425781 22.382812 21.257812 22.246094 21.058594 22.1875 L 18.070312 21.3125 C 17.65625 21.191406 17.222656 21.425781 17.101562 21.84375 C 16.980469 22.257812 17.21875 22.691406 17.632812 22.8125 L 18.804688 23.15625 L 11.777344 26.996094 C 11.398438 27.203125 11.257812 27.675781 11.464844 28.054688 C 11.609375 28.316406 11.878906 28.464844 12.152344 28.464844 Z M 12.152344 28.464844 "/>
</g>
</svg>
