<?xml version="1.0" encoding="UTF-8"?>
<svg xmlns="http://www.w3.org/2000/svg" xmlns:xlink="http://www.w3.org/1999/xlink" width="40px" height="40px" viewBox="0 0 40 40" version="1.1">
<g id="surface1">
<path style=" stroke:none;fill-rule:nonzero;fill:rgb(0%,0%,0%);fill-opacity:1;" d="M 37.890625 27.304688 C 37.425781 18.964844 31.226562 12.128906 23.183594 10.683594 C 23.296875 10.34375 23.363281 9.980469 23.363281 9.601562 C 23.363281 7.746094 21.855469 6.238281 20 6.238281 C 18.144531 6.238281 16.636719 7.746094 16.636719 9.601562 C 16.636719 9.980469 16.703125 10.34375 16.816406 10.683594 C 8.773438 12.128906 2.578125 18.964844 2.109375 27.304688 C 0.871094 27.816406 0 29.011719 0 30.398438 C 0 32.253906 1.554688 33.761719 3.460938 33.761719 L 36.539062 33.761719 C 38.445312 33.761719 40 32.253906 40 30.398438 C 40 29.011719 39.128906 27.816406 37.890625 27.304688 Z M 19.203125 9.601562 C 19.203125 9.160156 19.558594 8.804688 20 8.804688 C 20.441406 8.804688 20.796875 9.160156 20.796875 9.601562 C 20.796875 10.042969 20.441406 10.398438 20 10.398438 C 19.558594 10.398438 19.203125 10.042969 19.203125 9.601562 Z M 20 12.964844 C 28.035156 12.964844 34.648438 19.167969 35.304688 27.035156 L 4.695312 27.035156 C 5.351562 19.167969 11.964844 12.964844 20 12.964844 Z M 36.539062 31.195312 L 3.460938 31.195312 C 2.976562 31.195312 2.5625 30.832031 2.5625 30.398438 C 2.5625 29.964844 2.976562 29.601562 3.460938 29.601562 L 36.539062 29.601562 C 37.023438 29.601562 37.4375 29.964844 37.4375 30.398438 C 37.4375 30.832031 37.023438 31.195312 36.539062 31.195312 Z M 36.539062 31.195312 "/>
</g>
</svg>
